<svg width="68" height="47" viewBox="0 0 68 47" fill="none" xmlns="http://www.w3.org/2000/svg">
<path d="M48.4639 12.3763V45.1508C48.4639 45.9108 49.1852 46.5293 50.0719 46.5293C50.5022 46.5293 50.9048 46.3859 51.2089 46.1256C51.5124 45.8657 51.68 45.5193 51.68 45.1508V12.3763C51.68 11.6163 50.9581 10.9978 50.0714 10.9978C49.1847 10.9973 48.4639 11.6163 48.4639 12.3763Z" fill="black"/>
<path d="M63.1519 1.84781V45.1508C63.1519 45.9108 63.8732 46.5293 64.7599 46.5293C65.1902 46.5293 65.5928 46.3859 65.8969 46.1256C66.2004 45.8657 66.368 45.5193 66.368 45.1508V1.84828C66.368 1.08829 65.6461 0.469769 64.7594 0.469769C63.8727 0.469769 63.1519 1.08782 63.1519 1.84781Z" fill="black"/>
</svg>
