<svg width="47" height="68" viewBox="0 0 47 68" fill="none" xmlns="http://www.w3.org/2000/svg">
<path d="M12.3763 19.5361H45.1508C45.9108 19.5361 46.5293 18.8148 46.5293 17.9281C46.5293 17.4978 46.3859 17.0952 46.1256 16.7911C45.8657 16.4876 45.5193 16.32 45.1508 16.32H12.3763C11.6163 16.32 10.9978 17.0419 10.9978 17.9286C10.9973 18.8153 11.6163 19.5361 12.3763 19.5361Z" fill="black"/>
<path d="M1.84781 4.84863L45.1508 4.84863C45.9108 4.84863 46.5293 4.12729 46.5293 3.24057C46.5293 2.81026 46.3859 2.4077 46.1256 2.10361C45.8657 1.80006 45.5193 1.6325 45.1508 1.6325L1.84828 1.6325C1.08829 1.6325 0.469769 2.35439 0.469769 3.24111C0.469769 4.12783 1.08782 4.84863 1.84781 4.84863Z" fill="black"/>
</svg>
